<svg viewBox="0 0 500 125" xmlns="http://www.w3.org/2000/svg"><path d="M62.824 122.829c-5.082-2.435-9.31-6.962-11.446-12.215-2.69-6.577-2.477-2.562-2.733-58.894L48.43.256 42.367.128 36.302 0l-.17 50.097c-.129 48.73-.172 50.182-1.026 53.983-1.281 5.51-3.417 9.908-6.406 13.026-2.862 3.032-5.04 4.399-9.524 6.022l-3.203 1.153h24.984l24.942.043-3.075-1.495Zm57.058-60.518L119.754.256l-6.492-.128L106.771 0l-.171 50.95-.128 50.952-.94 3.545c-2.264 8.541-6.406 14.008-13.197 17.425l-2.904 1.452h30.536l-.085-62.013Zm41.512 61.543c0-.47-22.891-85.417-23.49-87.082-.213-.64-.384 17.211-.384 43.263l-.042 44.289h11.958c8.115 0 11.958-.129 11.958-.47Zm48.901-.256c-3.032-1.239-7.004-4.015-9.011-6.236-2.776-3.16-5.168-8.243-6.15-13.111-.812-3.844-.854-6.022-.854-41.854.042-40.701.042-41.214 2.263-47.065 2.35-6.107 6.535-10.848 12.044-13.453 1.751-.811 3.203-1.58 3.203-1.665 0-.086-6.705-.171-14.948-.171h-14.948v124.28l15.076-.042c14.308 0 14.948-.043 13.325-.683Zm72.134-.214c.129-.555 1.709-14.734 3.46-31.519 1.794-16.784 3.331-30.621 3.46-30.707a.26.26 0 0 1 .34 0c.086.086 1.666 14.35 3.503 31.69l3.374 31.476h25.796l.213-1.367c.427-2.52 13.496-120.523 13.496-121.718V.043h-8.328c-8.286 0-8.328 0-8.5.982-.127.512-2.348 21.995-4.996 47.705-2.605 25.71-4.826 46.851-4.911 46.936a.26.26 0 0 1-.342 0c-.085-.085-2.22-20.927-4.698-46.295-2.52-25.369-4.655-46.851-4.783-47.705l-.257-1.623h-9.096c-5.04 0-9.225.17-9.353.384-.129.214-2.264 21.482-4.784 47.278-2.477 25.796-4.57 46.98-4.698 47.107a.26.26 0 0 1-.341 0c-.086-.085-2.392-21.226-5.125-46.936-2.734-25.71-5.083-47.022-5.168-47.278-.128-.427-3.075-.555-12.813-.555-6.918 0-12.598.128-12.598.341 0 .171 1.153.812 2.52 1.452 3.501 1.666 6.491 4.143 8.712 7.26 4.313 6.108 5.424 10.592 5.723 23.32l.256 9.48h-18.407l-.214-8.669c-.213-9.695-.64-11.745-3.075-14.136-1.794-1.837-4.527-2.563-8.328-2.307-5.168.385-7.645 2.947-8.584 8.97-.257 1.665-.385 16.527-.3 38.565l.129 35.874.982 2.221c1.751 3.801 4.356 5.382 9.054 5.382s7.303-1.58 9.054-5.382c.94-2.135.983-2.69 1.11-15.759l.172-13.581h-9.054V55.136h27.333v21.269c0 22.38-.256 26.565-2.05 31.69-2.35 6.79-6.577 11.787-12.257 14.563l-3.417 1.666h47.62l.17-.94Zm83.11-61.2V.042l-9.694.085-9.738.128-.128 62.055-.085 62.013h19.646v-62.14Zm65.771 53.384v-8.755h-32.03V.043l-9.696.085-9.737.128-.128 62.055-.086 62.013h51.677v-8.756ZM440.065.256 458.43.3c12.894.032 16.855.063 19.358.44l.2.032.195.033.19.035.185.036a23.23 23.23 0 0 1 1.653.406c5.253 1.41 8.584 3.203 11.745 6.406 5.04 5.083 7.004 10.336 7.73 20.629.2 2.619.304 9.965.313 20.607v3.181c-.003 4.543-.022 9.6-.057 15.076-.17 27.29-.299 33.056-.854 35.576-2.52 11.403-8.072 17.596-18.45 20.585l-.141.04-.072.02-.146.037-.074.019-.152.036c-2.235.51-6.013.628-21.11.745l-19.091.128.085-62.055.128-62.055Zm26.425 17.725h-6.992v88.832h5.765c7.645 0 9.78-.47 12.001-2.733.216-.212.415-.402.6-.584l.155-.155c2.02-2.055 2.183-3.816 2.192-29.403V25.454l-1.11-2.392c-2.008-4.27-4.058-5.082-13.026-5.082ZM81.658 107.625c2.392-.64 4.826-3.033 5.723-5.638.726-2.092.769-5.082.769-51.976V.256H68.077v49.755c0 46.51.043 49.884.769 51.934 1.708 4.91 7.046 7.303 12.812 5.68Zm-71.579-1.452c2.52-.726 4.826-2.99 5.723-5.595.513-1.367.598-10.293.598-50.994V.256H1.025L.769 30.152C.598 46.595.384 70.554.256 83.452L0 106.813h3.972c2.263 0 4.869-.256 6.107-.64ZM164.17.555c-.128-.384-2.562-.512-10.079-.512-9.182 0-9.865.042-9.695.768.129.385 4.613 17.041 9.994 36.986l9.78 36.259.128-36.473c.043-20.073 0-36.729-.128-37.028Z" fill="#000" fill-rule="nonzero"/></svg>