<?xml version="1.0" encoding="utf-8"?>
<!-- Generator: Adobe Illustrator 26.0.3, SVG Export Plug-In . SVG Version: 6.00 Build 0)  -->
<svg version="1.1" id="Ebene_1" xmlns="http://www.w3.org/2000/svg" xmlns:xlink="http://www.w3.org/1999/xlink" x="0px" y="0px"
	 viewBox="0 0 794 305" style="enable-background:new 0 0 794 305;" xml:space="preserve">
<style type="text/css">
	.st0{fill:#FFFFFF;}
</style>
<g>
	<polygon class="st0" points="267.6,97 233.6,303.3 313.4,303.3 347.4,97 	"/>
	<path class="st0" d="M744.6,146.7h41l8.3-49.7h-41l10.8-66.2l-84.2,23.2L672.2,97H535.5l-43.4,56.5L467.9,97h-93.1l61,102.4
		l-0.4,0.4l-95.9,103.5h92.8l43.8-58.6l25.6,58.6h93.5L532,199.2l49.5-52.5h82.4l-0.1,0.8L648.4,238c-3.7,22.9-1.2,38.4,7.6,48.7
		c10.9,12.8,31.8,18.3,69.8,18.3h35.5l8.8-55.3h-28.5c-4.5,0-7.8-1.2-9.8-3.6c-3.3-3.9-2.2-10.1-1.7-12.7L744.6,146.7z"/>
	<path class="st0" d="M90.9,235.6c-2.6-3.1-3.2-7.9-1.9-14.6l35-212H39.3L1.5,236.3c-3.4,22.1-0.9,37.3,7.7,47.6
		c10.4,12.4,30.5,18.4,65.2,19.4h124.8l10.6-63.4h-107C97.2,239.9,93.3,238.4,90.9,235.6z"/>
	<path class="st0" d="M311.7,69.9c28.1,0,43.8-11.5,48-35.1c2-11.1,0.7-19.2-3.9-24.8c-5.6-6.7-16.2-10-32.4-10
		c-36.4,0-44.5,17.7-47.6,35c-1.9,10.8-0.5,18.9,4.3,24.6C285.8,66.4,296.4,69.9,311.7,69.9z"/>
</g>
</svg>
