<?xml version="1.0" encoding="UTF-8"?>
<svg xmlns="http://www.w3.org/2000/svg" xmlns:xlink="http://www.w3.org/1999/xlink" version="1.1" id="Ebene_1" x="0px" y="0px" viewBox="0 0 1000 240" style="enable-background:new 0 0 1000 240;" xml:space="preserve">
<style type="text/css">
	.st0{fill:#FFFFFF;}
	.st1{fill:#C6D76C;}
</style>
<path class="st0" d="M158.9750061,128.5748444c0,35.2917175-26.7160034,54.7508087-75.5295639,54.7508087  C24.4070053,183.3256378,1.319237,154.96138,0,121.9791107h49.4734039  c1.6491585,16.8206024,12.8633461,25.0659485,32.9822693,25.0659485c15.5018158,0,22.4283752-4.9470215,22.4283752-14.5120544  c0-15.1718979-16.8210602-16.82061-41.2280617-22.427475C33.9720345,103.1789703,3.298317,91.3053894,3.298317,57.003437  c0-31.6625824,26.3856354-53.1011925,73.8804092-53.1011925c54.0909576,0,75.199646,27.3754005,76.8488007,57.0593529h-49.4734039  c-1.6491547-13.5231895-8.9051819-20.7787666-26.3860855-20.7787666c-14.5120544,0-20.7787666,5.276947-20.7787666,13.5222931  c0,11.2146378,9.8949471,12.2034988,35.2912712,17.8103714C125.9927368,79.1018906,158.9750061,89.3258667,158.9750061,128.5748444z  "></path>
<path class="st0" d="M721.3048096,43.151226c-21.7685547,0-32.652771,18.8001366-32.652771,50.462719  s10.5543213,50.4627151,32.652771,50.4627151c20.7787476,0,27.0454712-14.1821289,28.6946411-29.6839523h53.1011963  c-2.6384888,40.2387466-32.9822388,69.2628555-81.4663696,69.2628555c-53.4310913,0-87.0732422-37.269455-87.0732422-90.0416183  c0-52.4422455,33.6420898-90.0416183,85.7539673-90.0416183c48.8140259,0,78.4979858,29.0241089,82.7855835,68.6030121h-53.1011963  c-1.6491699-13.852211-7.5859375-29.0241089-28.6946411-29.0241089L721.3048096,43.151226z"></path>
<path class="st0" d="M819.5863647,93.9438629c0-53.1020889,33.9720459-90.3715439,90.7019043-90.3715439  C966.0288086,3.572319,1000,39.8529053,1000,92.9541016c0,53.4320068-33.9711304,90.7014618-90.7014771,90.7014618  C853.5584106,183.6555634,819.5863647,147.3749695,819.5863647,93.9438629z M946.5689087,93.613945  c0-32.6523476-13.1932373-50.462719-36.6105347-50.462719c-23.7476196,0-36.9408569,17.8103714-36.9408569,50.462719  s13.1932373,50.4627151,36.9408569,50.4627151C933.3756104,144.0766602,946.5689087,126.2662888,946.5689087,93.613945z"></path>
<polygon class="st0" points="637.866333,9.1792946 583.4451294,9.1792946 543.8665161,120.3296585 504.2882385,9.1792946   449.8666382,9.1792946 517.151001,172.6680603 517.151001,236.4276733 570.5823364,236.4276733 570.5823364,172.6680603 "></polygon>
<path class="st0" d="M363.1300964,3.902699c-18.7225342,0-37.6613464,7.8720088-52.3258362,21.9604492  C296.139801,11.7747078,277.2009888,3.9026985,258.4784546,3.9026985c-39.0800476,0-79.15802,20.0668335-79.15802,66.0629272  v52.8381348h53.4317017V72.5069733c0-14.2082214,6.7840576-25.7240295,25.7263184-25.7240295  c18.7282715,0,25.7255554,11.5402222,25.7255554,25.7240295v50.2967834h53.200531V72.5069733  c0-14.1838074,6.9973145-25.7240295,25.7255554-25.7240295c18.9422607,0,25.7263184,11.5158081,25.7263184,25.7240295v50.2967834  h53.4317017V69.9656219C442.2881165,23.9695282,402.210144,3.9026947,363.1300964,3.902699z"></path>
<path class="st1" d="M310.8042908,185.4334564c-71.6081696,0-110.4670715-25.5432129-131.4838257-49.5826721v50.9941101  c21.0167542,24.0394592,59.8760376,49.5826721,131.4838257,49.5826721s110.4670715-25.5432129,131.4838257-49.5826721v-50.9941101  C421.2713623,159.8902435,382.4124756,185.4334564,310.8042908,185.4334564z"></path>
</svg>
